<?xml version="1.0" standalone="no"?>
<!DOCTYPE svg PUBLIC "-//W3C//DTD SVG 20010904//EN"
 "http://www.w3.org/TR/2001/REC-SVG-20010904/DTD/svg10.dtd">
<svg version="1.0" xmlns="http://www.w3.org/2000/svg"
 width="500.000000pt" height="500.000000pt" viewBox="0 0 500.000000 500.000000"
 preserveAspectRatio="xMidYMid meet">

<g transform="translate(0.000000,500.000000) scale(0.100000,-0.100000)"
fill="#000000" stroke="none">
<path d="M110 2500 l0 -330 1670 0 1670 0 0 330 0 330 -1670 0 -1670 0 0 -330z
m172 63 c3 -43 6 -48 28 -51 18 -2 42 11 85 48 38 32 68 50 85 50 23 -1 19 -6
-38 -59 l-63 -58 63 -56 c62 -56 63 -56 33 -57 -22 0 -45 13 -82 45 -37 33
-60 45 -82 45 -30 0 -31 -1 -31 -45 0 -38 -3 -45 -20 -45 -19 0 -20 7 -20 115
0 107 1 115 19 115 17 0 20 -8 23 -47z m410 -45 l87 -93 1 93 c0 85 1 92 20
92 19 0 20 -7 20 -115 l0 -115 -29 0 c-24 0 -43 16 -110 90 l-81 90 0 -90 c0
-83 -1 -90 -20 -90 -19 0 -20 7 -20 115 0 112 0 115 23 115 15 1 48 -27 109
-92z m448 77 c67 -35 82 -120 31 -177 -28 -32 -33 -33 -113 -36 -70 -3 -88 0
-116 18 -73 46 -67 161 11 195 43 19 151 19 187 0z m165 -70 c16 -47 32 -85
35 -85 3 0 22 38 44 85 33 73 42 85 63 85 21 0 30 -13 67 -91 l42 -90 31 88
c25 72 34 89 53 91 25 4 27 14 -24 -128 -29 -82 -37 -95 -58 -98 -22 -3 -29 7
-68 90 l-43 93 -43 -92 c-37 -81 -46 -93 -68 -93 -22 0 -27 9 -60 108 -20 59
-36 110 -36 115 0 4 8 7 18 7 13 0 25 -22 47 -85z m445 -10 l0 -95 95 0 c88 0
95 -1 95 -20 0 -19 -7 -20 -115 -20 l-115 0 0 115 c0 108 1 115 20 115 19 0
20 -7 20 -95z m490 75 c0 -19 -7 -20 -100 -20 l-100 0 0 -30 0 -30 90 0 c83 0
90 -1 90 -20 0 -19 -7 -20 -90 -20 -89 0 -90 0 -90 -25 l0 -25 100 0 c93 0
100 -1 100 -20 0 -19 -7 -20 -120 -20 l-120 0 0 115 0 115 120 0 c113 0 120
-1 120 -20z m282 10 c51 -14 78 -52 78 -107 0 -91 -38 -113 -190 -113 l-100 0
0 115 0 115 88 0 c48 0 104 -5 124 -10z m383 -4 c29 -12 55 -41 55 -60 0 -3
-11 -6 -25 -6 -14 0 -25 4 -25 8 0 17 -52 32 -106 32 -45 0 -59 -4 -79 -25
-32 -31 -33 -77 -3 -105 33 -30 145 -29 178 3 l25 22 -53 3 c-37 2 -52 7 -52
18 0 11 16 14 70 14 l70 0 0 -60 c0 -47 -3 -60 -15 -60 -8 0 -15 7 -15 15 0
14 -3 14 -30 0 -18 -9 -56 -15 -101 -15 -67 0 -73 2 -105 34 -28 28 -34 42
-34 76 0 52 13 76 53 100 39 24 141 27 192 6z m375 -6 c0 -19 -7 -20 -100 -20
l-100 0 0 -30 0 -30 90 0 c83 0 90 -1 90 -20 0 -19 -7 -20 -90 -20 -89 0 -90
0 -90 -25 l0 -25 100 0 c93 0 100 -1 100 -20 0 -19 -7 -20 -120 -20 l-120 0 0
115 0 115 120 0 c113 0 120 -1 120 -20z"/>
<path d="M973 2560 c-47 -20 -56 -78 -17 -117 23 -23 31 -25 101 -21 60 3 78
7 89 23 20 26 17 69 -5 96 -15 19 -30 23 -82 26 -35 1 -74 -1 -86 -7z"/>
<path d="M2350 2496 l0 -76 78 0 c101 0 126 13 130 66 5 61 -19 77 -123 82
l-85 5 0 -77z"/>
<path d="M3580 2490 c0 -113 1 -120 20 -120 17 0 20 7 20 50 0 49 0 50 32 50
23 0 46 -13 89 -50 41 -35 66 -50 86 -50 27 1 25 3 -37 61 l-65 60 65 59 c60
55 63 59 38 60 -18 0 -46 -16 -85 -50 -44 -37 -66 -50 -90 -50 -33 0 -33 0
-33 50 0 43 -3 50 -20 50 -19 0 -20 -7 -20 -120z"/>
<path d="M3920 2490 l0 -120 131 0 c119 0 130 2 127 18 -3 15 -18 17 -111 20
l-107 3 0 29 0 30 95 0 c88 0 95 1 95 20 0 19 -7 20 -95 20 l-95 0 0 35 0 35
110 0 c91 0 110 3 110 15 0 13 -21 15 -130 15 l-130 0 0 -120z"/>
<path d="M4250 2490 l0 -120 131 0 c119 0 130 2 127 18 -3 15 -18 17 -111 20
l-107 3 0 29 0 30 95 0 c88 0 95 1 95 20 0 19 -7 20 -95 20 l-95 0 0 35 0 35
110 0 c91 0 110 3 110 15 0 13 -21 15 -130 15 l-130 0 0 -120z"/>
<path d="M4580 2490 c0 -113 1 -120 20 -120 17 0 20 7 20 40 l0 40 89 0 c110
0 133 14 135 79 1 69 -22 81 -155 81 l-109 0 0 -120z m218 63 c6 -10 6 -28 1
-40 -8 -21 -14 -23 -94 -23 l-85 0 0 40 0 40 85 0 c70 0 86 -3 93 -17z"/>
</g>
</svg>
