<?xml version="1.0" standalone="no"?>
<!DOCTYPE svg PUBLIC "-//W3C//DTD SVG 20010904//EN"
 "http://www.w3.org/TR/2001/REC-SVG-20010904/DTD/svg10.dtd">
<svg version="1.0" xmlns="http://www.w3.org/2000/svg"
 width="500.000000pt" height="91.000000pt" viewBox="0 0 500.000000 91.000000"
 preserveAspectRatio="xMidYMid meet">

<g transform="translate(0.000000,91.000000) scale(0.100000,-0.100000)"
fill="#000000" stroke="none">
<path d="M80 450 l0 -330 1665 0 c1325 0 1665 3 1665 13 0 6 3 104 6 217 3
113 3 256 -1 318 l-7 112 -1664 0 -1664 0 0 -330z m1042 94 c37 -19 48 -43 48
-104 0 -40 -5 -56 -24 -75 -40 -40 -124 -55 -198 -35 -120 34 -117 201 5 229
50 11 131 4 169 -15z m1717 15 c50 -11 91 -44 91 -75 0 -21 -40 -16 -59 7 -21
26 -94 36 -144 20 -61 -20 -72 -102 -18 -130 34 -19 126 -13 152 9 l24 19 -47
1 c-44 0 -48 2 -48 25 0 24 2 25 75 25 l75 0 0 -65 c0 -57 -2 -65 -19 -65 -11
0 -21 4 -23 10 -2 6 -19 4 -43 -5 -49 -18 -96 -19 -147 -3 -56 16 -78 49 -78
113 0 43 5 57 27 79 14 14 36 28 47 31 12 2 30 6 41 8 34 8 43 7 94 -4z
m-2585 -46 c-1 -42 0 -43 30 -43 23 0 46 12 84 46 41 36 58 45 82 42 l31 -3
-65 -55 -66 -55 63 -57 62 -57 -34 -1 c-26 0 -44 10 -83 45 -36 32 -59 45 -80
45 -18 0 -27 -4 -23 -11 4 -6 4 -26 1 -45 -5 -25 -12 -34 -26 -34 -19 0 -20 8
-20 116 0 114 0 115 23 112 19 -3 22 -9 21 -45z m406 -39 l75 -86 3 86 c3 84
3 86 27 86 l25 0 0 -115 0 -115 -32 1 c-28 0 -43 12 -108 86 l-75 86 -3 -86
c-3 -79 -5 -87 -22 -87 -19 0 -20 7 -20 115 l0 115 28 0 c21 -1 42 -18 102
-86z m616 6 c16 -44 31 -80 34 -80 3 0 22 36 42 80 33 73 39 80 65 80 27 0 32
-7 69 -87 l40 -87 29 87 c26 75 33 87 52 87 13 0 23 -3 23 -7 0 -5 -17 -56
-37 -115 -36 -102 -39 -108 -66 -108 -25 0 -32 8 -69 88 l-41 87 -40 -88 c-39
-84 -43 -88 -70 -85 -28 3 -32 9 -68 113 -21 61 -38 111 -39 113 0 1 11 2 24
2 21 0 27 -10 52 -80z m444 -15 l0 -95 95 0 c88 0 95 -1 95 -20 0 -19 -7 -20
-115 -20 l-115 0 0 115 c0 108 1 115 20 115 19 0 20 -7 20 -95z m500 75 c0
-19 -7 -20 -100 -20 l-100 0 0 -30 0 -30 85 0 c78 0 85 -2 85 -20 0 -18 -7
-20 -85 -20 -84 0 -85 0 -85 -25 l0 -25 100 0 c93 0 100 -1 100 -20 0 -19 -7
-20 -125 -20 l-125 0 0 115 0 115 125 0 c118 0 125 -1 125 -20z m295 6 c43
-18 55 -42 55 -109 0 -45 -4 -58 -26 -78 -24 -22 -35 -24 -145 -27 l-119 -4 0
116 0 116 100 0 c64 0 113 -5 135 -14z m745 -6 c0 -19 -7 -20 -100 -20 l-100
0 0 -30 0 -30 85 0 c78 0 85 -2 85 -20 0 -18 -7 -20 -85 -20 -84 0 -85 0 -85
-25 l0 -25 100 0 c93 0 100 -1 100 -20 0 -19 -7 -20 -125 -20 l-125 0 0 115 0
115 125 0 c118 0 125 -1 125 -20z"/>
<path d="M960 513 c-32 -13 -50 -37 -50 -69 0 -58 42 -80 132 -72 82 8 111 60
65 114 -19 22 -33 28 -78 30 -30 2 -61 1 -69 -3z"/>
<path d="M2325 489 c-3 -19 -4 -52 -2 -74 l4 -40 56 -3 c81 -4 134 12 139 43
8 37 -2 74 -21 85 -10 5 -52 12 -94 16 l-76 7 -6 -34z"/>
<path d="M3550 440 c0 -113 1 -120 20 -120 18 0 20 7 20 55 0 54 0 55 29 55
21 0 48 -16 94 -55 36 -31 74 -55 87 -55 18 0 11 11 -45 63 l-67 62 66 55 c52
44 61 56 45 58 -12 2 -41 -15 -78 -47 -47 -41 -66 -51 -95 -51 l-36 0 0 50 c0
43 -3 50 -20 50 -19 0 -20 -7 -20 -120z"/>
<path d="M3890 440 l0 -120 125 0 c104 0 125 2 125 15 0 12 -18 15 -105 15
l-105 0 0 35 0 35 95 0 c78 0 95 3 95 15 0 12 -17 15 -95 15 l-95 0 0 40 0 40
105 0 c87 0 105 3 105 15 0 13 -21 15 -125 15 l-125 0 0 -120z"/>
<path d="M4220 440 l0 -120 125 0 c104 0 125 2 125 15 0 12 -18 15 -105 15
l-105 0 0 35 0 35 95 0 c78 0 95 3 95 15 0 12 -17 15 -95 15 l-95 0 0 40 0 40
105 0 c87 0 105 3 105 15 0 13 -21 15 -125 15 l-125 0 0 -120z"/>
<path d="M4550 440 c0 -113 1 -120 20 -120 17 0 20 7 20 39 l0 39 89 4 c112 4
133 19 129 87 -4 61 -24 71 -155 71 l-103 0 0 -120z m204 80 c28 -10 36 -49
13 -68 -10 -9 -109 -16 -164 -13 -9 1 -13 17 -13 46 l0 45 69 0 c38 0 81 -4
95 -10z"/>
</g>
</svg>
